<?xml version="1.0" encoding="utf-8"?>
<!-- Generator: Adobe Illustrator 16.0.4, SVG Export Plug-In . SVG Version: 6.00 Build 0)  -->
<!DOCTYPE svg PUBLIC "-//W3C//DTD SVG 1.1//EN" "http://www.w3.org/Graphics/SVG/1.1/DTD/svg11.dtd">
<svg version="1.1" xmlns="http://www.w3.org/2000/svg" xmlns:xlink="http://www.w3.org/1999/xlink" x="0px" y="0px" width="100px"
	 height="100px" viewBox="0 0 100 100" enable-background="new 0 0 100 100" xml:space="preserve">
<g id="background">
</g>
<g id="bottle">
</g>
<g id="book">
</g>
<g id="pen_pencil">
	<g>
		<g>
			<path fill-rule="evenodd" clip-rule="evenodd" fill="#FFFFFF" d="M67.103,39.662c4.806-4.806,2.126-10.558,2.126-10.558
				s-5.47,3.093-8.9,3.783c-2.703,0.544-2.26,4.847-0.309,6.796C61.969,41.634,65.152,41.612,67.103,39.662z M39.474,31.991
				l-9.941-2.884l2.884,9.941L39.474,31.991z M57.137,49.606l1.408-1.408c1.947-1.947,1.947-5.105,0-7.054
				c-1.949-1.948-5.107-1.948-7.055,0l-1.403,1.403l-8.496-8.506l-7.071,7.071l8.501,8.5L30.284,62.351
				c-1.948,1.947-1.948,5.106,0,7.054c1.948,1.948,5.106,1.948,7.054,0l12.737-12.737l11.322,11.321
				c1.948,1.947,5.106,1.947,7.054,0c1.949-1.948,1.949-5.106,0-7.055L57.137,49.606z M43.051,49.608l-2.125-2.125l7.02-7.02
				l2.125,2.125L43.051,49.608z M50.119,56.676l7.02-7.02l2.125,2.125l-7.02,7.02L50.119,56.676z M59.314,65.871l-2.125-2.124
				l7.02-7.02l2.125,2.124L59.314,65.871z"/>
		</g>
	</g>
</g>
</svg>
