<?xml version="1.0" encoding="utf-8"?>
<!-- Generator: Adobe Illustrator 16.0.4, SVG Export Plug-In . SVG Version: 6.00 Build 0)  -->
<!DOCTYPE svg PUBLIC "-//W3C//DTD SVG 1.1//EN" "http://www.w3.org/Graphics/SVG/1.1/DTD/svg11.dtd">
<svg version="1.1" id="Layer_1" xmlns="http://www.w3.org/2000/svg" xmlns:xlink="http://www.w3.org/1999/xlink" x="0px" y="0px"
	 width="100px" height="100px" viewBox="-24.5 125.5 100 100" enable-background="new -24.5 125.5 100 100" xml:space="preserve">
<g id="background">
	<circle display="none" cx="50" cy="50" r="50"/>
</g>
<g id="bottle" display="none">
	<g display="inline">
		<g>
			<path fill="#FFFFFF" d="M75.664,23.606c-1.348-1.349-3.535-1.349-4.885,0l-4.316,4.316c-3.611-1.873-8.009-1.701-11.473,0.529
				l-0.873-0.873c-0.781-0.781-2.049-0.781-2.828,0L20.175,58.691c-0.781,0.781-0.781,2.047,0,2.828l17.656,17.655
				c0.78,0.779,2.047,0.779,2.828,0l31.112-31.114c0.78-0.781,0.78-2.047,0-2.828l-0.941-0.942
				c2.234-3.468,2.402-7.872,0.521-11.488l4.312-4.312C77.014,27.143,77.014,24.955,75.664,23.606z M41.037,74.582
				c-0.987,0.988-2.588,0.988-3.574,0l-2.805-2.803c-0.986-0.988-0.986-2.588,0-3.574c0.987-0.988,2.566-0.965,3.553,0.021
				l2.804,2.803C42.001,72.018,42.023,73.596,41.037,74.582z M46.693,68.926c-0.986,0.986-2.588,0.986-3.574,0l-6.34-6.34
				c-0.986-0.986-0.986-2.586,0-3.574c0.988-0.986,2.566-0.965,3.553,0.021l6.34,6.34C47.658,66.359,47.68,67.938,46.693,68.926z
				 M52.35,63.27c-0.986,0.986-2.585,0.986-3.575,0l-2.803-2.805c-0.987-0.986-0.987-2.588,0-3.574
				c0.986-0.986,2.564-0.965,3.552,0.021l2.804,2.805C53.314,60.703,53.338,62.281,52.35,63.27z M58.008,57.611
				c-0.988,0.988-2.588,0.988-3.576,0l-6.338-6.34c-0.986-0.986-0.986-2.586,0-3.573c0.986-0.987,2.564-0.965,3.553,0.022
				l6.338,6.34C58.973,55.047,58.994,56.625,58.008,57.611z M63.664,51.955c-0.986,0.986-2.588,0.986-3.574,0l-2.805-2.804
				c-0.986-0.987-0.986-2.587,0-3.574c0.988-0.987,2.566-0.965,3.553,0.022l2.805,2.803C64.629,49.39,64.65,50.968,63.664,51.955z"
				/>
		</g>
	</g>
</g>
<g id="book">
	<g>
		<g>
			<path fill="#FFFFFF" d="M22.506,157.508l-13-3c-1.104,0-2,0.896-2,2v26.979c0,1.029,0.991,1.727,2,2l15,5v-30.979
				C24.506,158.404,23.5,157.656,22.506,157.508z M44.516,183.486v-26.979c0-1.104-0.895-2-2-2l-13.031,3c-0.939,0.234-2,0.896-2,2
				v30.979l15.031-5C43.503,185.227,44.516,184.516,44.516,183.486z M4.508,186.508l-0.008-29l-4-1l0.008,31
				c0,1.348,23.992,9,23.992,9v-3C24.5,193.508,4.508,187.519,4.508,186.508z M47.5,157.508l-0.008,29c0,1.011-19.992,7-19.992,7v3
				c0,0,23.992-7.652,23.992-9l0.008-31L47.5,157.508z"/>
		</g>
	</g>
	<path fill="#FFFFFF" d="M30.508,185.492h6v13l-3.031-2.969l-2.969,2.969V185.492z"/>
</g>
<g id="pen_pencil" display="none">
	<g display="inline">
		<g>
			<path fill="#FFFFFF" d="M39.474,31.991l-9.941-2.884l2.884,9.941L39.474,31.991z M67.104,39.662
				c4.806-4.806,2.125-10.558,2.125-10.558s-5.47,3.093-8.899,3.783c-2.703,0.544-2.261,4.847-0.31,6.796
				C61.969,41.634,65.152,41.612,67.104,39.662z M57.137,49.606l1.408-1.408c1.947-1.947,1.947-5.105,0-7.054
				c-1.949-1.948-5.107-1.948-7.055,0l-1.403,1.403l-8.496-8.506l-7.071,7.071l8.501,8.5l-12.737,12.74
				c-1.948,1.946-1.948,5.105,0,7.053c1.948,1.949,5.106,1.949,7.054,0l12.737-12.736l11.321,11.321
				c1.949,1.946,5.106,1.946,7.055,0c1.949-1.948,1.949-5.106,0-7.056L57.137,49.606z M43.051,49.608l-2.125-2.125l7.02-7.02
				l2.125,2.125L43.051,49.608z M50.119,56.676l7.02-7.02l2.125,2.125l-7.02,7.02L50.119,56.676z M59.314,65.871l-2.125-2.124
				l7.02-7.021l2.125,2.125L59.314,65.871z"/>
		</g>
	</g>
</g>
</svg>
