<?xml version="1.0" encoding="utf-8"?>
<!-- Generator: Adobe Illustrator 16.0.4, SVG Export Plug-In . SVG Version: 6.00 Build 0)  -->
<!DOCTYPE svg PUBLIC "-//W3C//DTD SVG 1.1//EN" "http://www.w3.org/Graphics/SVG/1.1/DTD/svg11.dtd">
<svg version="1.1" id="Layer_1" xmlns="http://www.w3.org/2000/svg" xmlns:xlink="http://www.w3.org/1999/xlink" x="0px" y="0px"
	 width="100px" height="100px" viewBox="-24.5 125.5 100 100" enable-background="new -24.5 125.5 100 100" xml:space="preserve">
<g>
	<g>
		<path fill="#FFFFFF" d="M52.645,147.531c-1.349-1.348-3.576-1.388-4.926-0.04l-4.316,4.316c-3.611-1.872-8.009-1.701-11.473,0.529
			l-0.901-0.901c-0.781-0.781-2.049-0.781-2.828,0l-31.115,31.113c-0.78,0.781-0.78,2.047,0,2.828l17.686,17.684
			c0.779,0.78,2.047,0.779,2.828,0l31.112-31.114c0.78-0.78,0.78-2.047,0-2.828l-0.941-0.941c2.234-3.468,2.442-7.832,0.562-11.448
			l4.311-4.311C53.994,151.069,53.994,148.881,52.645,147.531z M17.977,198.468c-0.987,0.988-2.588,0.988-3.574,0l-2.805-2.803
			c-0.986-0.988-0.986-2.588,0-3.574c0.986-0.988,2.565-0.965,3.553,0.021l2.805,2.803C18.94,195.903,18.962,197.481,17.977,198.468
			z M23.632,192.812c-0.985,0.986-2.587,0.986-3.573,0.001l-6.34-6.341c-0.986-0.986-0.987-2.586,0-3.574
			c0.988-0.986,2.566-0.965,3.553,0.022l6.34,6.339C24.598,190.245,24.619,191.824,23.632,192.812z M29.289,187.156
			c-0.986,0.985-2.586,0.985-3.575-0.001l-2.803-2.804c-0.987-0.987-0.987-2.589,0-3.574c0.986-0.986,2.564-0.966,3.553,0.021
			l2.804,2.806C30.254,184.589,30.277,186.167,29.289,187.156z M34.947,181.498c-0.988,0.987-2.588,0.987-3.576-0.001l-6.338-6.339
			c-0.985-0.987-0.986-2.587,0-3.574s2.564-0.966,3.553,0.022l6.338,6.341C35.912,178.933,35.934,180.511,34.947,181.498z
			 M40.604,175.842c-0.986,0.985-2.589,0.985-3.574,0l-2.806-2.806c-0.985-0.985-0.985-2.586,0.001-3.573
			c0.988-0.987,2.566-0.965,3.553,0.022l2.805,2.804C41.568,173.276,41.589,174.854,40.604,175.842z"/>
	</g>
</g>
</svg>
