<?xml version="1.0" encoding="utf-8"?>
<!-- Generator: Adobe Illustrator 16.0.4, SVG Export Plug-In . SVG Version: 6.00 Build 0)  -->
<!DOCTYPE svg PUBLIC "-//W3C//DTD SVG 1.1//EN" "http://www.w3.org/Graphics/SVG/1.1/DTD/svg11.dtd">
<svg version="1.1" id="Layer_1" xmlns="http://www.w3.org/2000/svg" xmlns:xlink="http://www.w3.org/1999/xlink" x="0px" y="0px"
	 width="150px" height="150px" viewBox="0.5 150.5 150 150" enable-background="new 0.5 150.5 150 150" xml:space="preserve">
<circle display="none" opacity="0.2" fill="#ED1C24" enable-background="new    " cx="75" cy="75" r="75"/>
<g display="none">
	<g display="inline">
		<path fill="#FFFFFF" d="M84.509,47.556c1.123,0,2.034-0.911,2.034-2.035s-0.911-2.035-2.034-2.035
			c-1.124,0-2.034,0.911-2.034,2.035S83.385,47.556,84.509,47.556z M73.543,55.521c0-1.124-0.911-2.035-2.035-2.035
			s-2.035,0.911-2.035,2.035s0.911,2.035,2.035,2.035S73.543,56.645,73.543,55.521z M59.5,103.5h32v-37h-32V103.5z M102.5,58.5h-3
			l-4.001,6h3L102.5,58.5z M55.501,64.5l-4.001-6h-3l4.001,6H55.501z M95.471,104.525c0,1.293-1.561,2.98-2.979,2.98H58.436
			c-1.335,0-2.938-1.646-2.938-2.98L55.5,64.513h-3.057v41.031c0,2.763,2.238,5,5,5h36.083c2.762,0,5-2.237,5-5V64.513H95.5
			L95.471,104.525z M63.016,61.554c2.505,0,4.536-2.03,4.536-4.536c0-2.505-2.031-4.536-4.536-4.536s-4.536,2.031-4.536,4.536
			C58.479,59.523,60.51,61.554,63.016,61.554z M75.507,45.546c1.675,0,3.031-1.357,3.031-3.031c0-1.674-1.356-3.03-3.031-3.03
			c-1.674,0-3.031,1.356-3.031,3.03C72.476,44.189,73.833,45.546,75.507,45.546z M67.527,50.537c2.212,0,4.006-1.793,4.006-4.006
			c0-2.213-1.794-4.006-4.006-4.006s-4.006,1.793-4.006,4.006C63.521,48.744,65.314,50.537,67.527,50.537z M76.484,56.011
			c0,3.604,2.92,6.524,6.522,6.524c3.604,0,6.524-2.921,6.524-6.524c0-3.603-2.922-6.523-6.524-6.523
			C79.404,49.487,76.484,52.408,76.484,56.011z"/>
	</g>
</g>
<g>
	<g>
		<path fill="#124A6E" d="M75.512,193.472c-12.049,0-30.011,11.041-30.011,11.041s0,9.619,0,23.999
			c0,14.483,29.999,29.017,29.999,29.017s30-14.535,30-29.017c0-14.37,0-23.999,0-23.999S87.561,193.472,75.512,193.472z
			 M83.523,233.549L75.5,227.5l-8.007,5.996l3.023-8.992l-7.029-6.019H72.5l3-9.001l2.984,9.022h9.057l-7.041,6.004L83.523,233.549z
			"/>
	</g>
</g>
</svg>
