<?xml version="1.0" encoding="utf-8"?>
<!-- Generator: Adobe Illustrator 16.0.4, SVG Export Plug-In . SVG Version: 6.00 Build 0)  -->
<!DOCTYPE svg PUBLIC "-//W3C//DTD SVG 1.1//EN" "http://www.w3.org/Graphics/SVG/1.1/DTD/svg11.dtd">
<svg version="1.1" id="Layer_1" xmlns="http://www.w3.org/2000/svg" xmlns:xlink="http://www.w3.org/1999/xlink" x="0px" y="0px"
	 width="150px" height="150px" viewBox="0.5 150.5 150 150" enable-background="new 0.5 150.5 150 150" xml:space="preserve">
<g>
	<g>
		<path fill="#124A6E" d="M59.5,253.516h32V216.5h-32V253.516z M73.512,205.506c0-1.107-0.897-2.004-2.004-2.004
			c-1.107,0-2.003,0.896-2.003,2.004c0,1.105,0.896,2.004,2.003,2.004C72.614,207.51,73.512,206.611,73.512,205.506z
			 M84.501,197.526c1.11,0,2.011-0.901,2.011-2.012c0-1.112-0.9-2.012-2.011-2.012c-1.111,0-2.011,0.899-2.011,2.012
			C82.49,196.625,83.39,197.526,84.501,197.526z M95.471,255.494c0,0.983-0.979,1.97-1.985,1.97H57.537
			c-1.093,0-2.029-0.964-2.029-1.971l-0.007-41.004h-3.002l0.012,41.012c0,3.455,2.033,5,5.004,5H93.5c3.002,0,5-1.989,5-5V214.5h-3
			L95.471,255.494z M102.516,208.5h-3l-4.017,6h3L102.516,208.5z M75.507,195.509c1.657,0,3-1.342,3-2.998c0-1.658-1.343-3-3-3
			c-1.656,0-3,1.342-3,3C72.507,194.167,73.851,195.509,75.507,195.509z M55.501,214.489l-3.989-5.993h-3.03l4.02,5.993H55.501z
			 M62.993,211.511c2.492,0,4.512-2.021,4.512-4.514c0-2.491-2.021-4.512-4.512-4.512s-4.513,2.021-4.513,4.512
			C58.479,209.49,60.5,211.511,62.993,211.511z M67.503,200.508c2.208,0,3.999-1.79,3.999-3.998s-1.791-3.998-3.999-3.998
			s-3.998,1.79-3.998,3.998S65.295,200.508,67.503,200.508z M76.53,206.008c0,3.589,2.905,6.494,6.491,6.494
			c3.588,0,6.493-2.907,6.493-6.494c0-3.585-2.907-6.49-6.493-6.49C79.436,199.516,76.53,202.423,76.53,206.008z"/>
	</g>
</g>
</svg>
