<svg xmlns="http://www.w3.org/2000/svg" viewBox="0 0 810.85 281.39"><defs><style>.cls-1{fill:#08669c;}.cls-2{fill:#818080;}.cls-3{fill:#fa0f2b;}</style></defs><title>Asset 1</title><g id="Layer_2" data-name="Layer 2"><g id="Main"><path class="cls-1" d="M215.87,3.74H139.58v27.4l16.51,1.55-48,141.68c-1.55,5.92-3.11,8.41-10.27,9.34l-7.79.94V210.8h73.49V183.71l-15.88-.93,15.88-57.61L189.4,43.59h1.25l25.53,81.58,13.08,49.2c2.18,5.92.94,8.41-5,9.34l-10,.94V210.8h80V183.71l-15.57-1.24Z"/><path class="cls-1" d="M432.18,3.74H355.9v27.4l16.5,1.55-48,141.68c-1.55,5.92-3.11,8.41-10.27,9.34l-7.79.94V210.8h73.49V183.71L364,182.78l9.65-28h65.08l6.85,19.61c2.18,5.92.94,8.41-5,9.34l-10,.94V210.8h80V183.71l-15.57-1.24ZM379.87,125.17l25.84-81.58H407l25.53,81.58Z"/><path class="cls-1" d="M607,101.82v27.09l19.93.94v44.21C619.4,177.49,607.26,180,597,180c-35.81,0-50.75-27.09-50.75-74.11,0-42.35,17.75-70.37,58.54-70.37a120.29,120.29,0,0,1,23,2.18c4.67,1.55,5.29,4,5.29,9V67L667,64.45V12.77C653,5.6,628.74,0,602.9,0,549,0,500.14,27.4,500.14,107.74c0,72.24,35.5,106.8,95.6,106.8,28.65,0,55.42-7.78,72.86-19.93v-57c0-5.92,2.49-7.78,7.79-8.72l8.4-.93V101.82Z"/><path class="cls-2" d="M431.6,275l2.11-.2c1.25-.2,1.64-.53,1.9-2.1l5.33-29.92-3.49-.26,1-5.72h17.75c8.68,0,14.79,2.83,14.79,10.72,0,7.36-5,11.3-11.24,12.68,2.3.6,3.35,2.17,4.34,4.74l3.22,8.15c.46,1.12.79,1.64,2,1.64a14.54,14.54,0,0,0,1.58-.06,4.12,4.12,0,0,0,.92-.07l-.92,5.85a22.19,22.19,0,0,1-5.85.79c-4.34,0-5.59-2-6.78-5.39l-3.15-8.55c-1.05-2.89-2-3.61-4.73-3.61h-3.75l-1.91,11,3.16.13-1.05,5.72H430.68Zm20.78-17.56c5.32,0,8.67-3.15,8.67-8.87,0-4-2.56-5.06-7-5.06h-3.81l-2.44,13.93Z"/><path class="cls-2" d="M505.37,255c0,10-8.68,13-20.58,12.68-.19,3.55.86,6.77,5.92,6.77a16.55,16.55,0,0,0,8.88-2.63l1.64,6.25a26,26,0,0,1-12.75,3.35c-9,0-12.89-5.45-12.89-12.88,0-10.65,5.33-22.16,19.79-22.16C501.69,246.35,505.37,248.92,505.37,255Zm-11.11-2c-4.54,0-7.62,4.14-8.68,8.55,7.1,0,11.7-1.25,11.7-5.79C497.28,253.72,496,253,494.26,253Z"/><path class="cls-2" d="M510.64,247.93c4.73-.85,7.1-3.81,9.33-8.28H525l-1.38,7.56h8.22l-1.45,6.37h-7.88l-2.77,16.11c-.72,3.68.2,4.67,2.77,4.67a11.77,11.77,0,0,0,4.86-1.25l.72,6.25a18.07,18.07,0,0,1-8.94,2c-10.32,0-9.66-6.18-8.81-11.17l3-16.64h-4.47Z"/><path class="cls-2" d="M548.51,247.21l-4.74,26.49c-.19,1.05.07,1.51,1.32,1.45l2.5-.13-1,5.52a23.52,23.52,0,0,1-6.11.79c-5.26,0-6.64-2.63-5.66-7.89l3.29-18.61c.2-1.25-.2-1.9-1.25-2l-2-.13,1-5.52Zm-2.63-14.46c2.89,0,4.73,1.57,4.73,4.14,0,3.35-3,5.91-6.57,5.91-2.9,0-4.61-1.77-4.61-4.2C539.43,235.37,542.2,232.75,545.88,232.75Z"/><path class="cls-2" d="M566.06,260l-3.68,20.58h-9l4.54-25.77c.26-1.25-.13-1.84-1.25-1.91l-2.17-.13,1-5.52h12l-.79,5.06h.13a11.55,11.55,0,0,1,10.33-5.92,14.52,14.52,0,0,1,5.85,1.12l-2,11.83-7.56.53.72-4.14c.27-1.25.27-1.51-.46-1.71a3.15,3.15,0,0,0-1.45-.13C569.09,253.85,566.78,256.48,566.06,260Z"/><path class="cls-2" d="M613.14,255c0,10-8.68,13-20.58,12.68-.2,3.55.85,6.77,5.92,6.77a16.51,16.51,0,0,0,8.87-2.63L609,278a26,26,0,0,1-12.75,3.35c-8.94,0-12.88-5.45-12.88-12.88,0-10.65,5.32-22.16,19.78-22.16C609.46,246.35,613.14,248.92,613.14,255ZM602,253c-4.54,0-7.63,4.14-8.68,8.55,7.1,0,11.7-1.25,11.7-5.79C605.05,253.72,603.8,253,602,253Z"/><path class="cls-2" d="M653.71,236.82c6.57,0,12.88,2,12.88,9.4,0,5.59-3.75,9.2-8.68,10.78,4.54.79,7.3,4.21,7.3,9.21,0,8.94-6.9,14.33-19.79,14.33H626.69l.92-5.52,2.1-.2c1.25-.2,1.64-.46,1.91-2l5.32-30.05-3.48-.26,1-5.72ZM640.89,274h5.19c7,0,9.07-3.81,9.07-7.69,0-3.61-2.36-5.32-6.57-5.32h-5.39Zm3.35-19.19h4.07c5.86,0,8.35-3.16,8.35-7.17,0-3.42-2.3-4.47-6-4.47h-4.4Z"/><path class="cls-2" d="M699.73,255c0,10-8.68,13-20.58,12.68-.19,3.55.86,6.77,5.92,6.77a16.49,16.49,0,0,0,8.87-2.63l1.65,6.25a26,26,0,0,1-12.76,3.35c-8.94,0-12.88-5.45-12.88-12.88,0-10.65,5.32-22.16,19.79-22.16C696.05,246.35,699.73,248.92,699.73,255Zm-11.11-2c-4.54,0-7.63,4.14-8.68,8.55,7.1,0,11.7-1.25,11.7-5.79C691.64,253.72,690.39,253,688.62,253Z"/><path class="cls-2" d="M714.13,269.69c-.72,3.68.2,4.67,2.76,4.67a11.82,11.82,0,0,0,4.87-1.25l.72,6.25a18.07,18.07,0,0,1-8.94,2c-10.32,0-9.66-6.18-8.81-11.17l3-16.64h-4.47l1.77-5.65c4.74-.85,7.1-3.81,9.34-8.28h5.06L718,247.21h11c3.22-1.32,5.06-3.88,6.9-7.56H741l-1.38,7.56h8.22l-1.45,6.37h-7.88l-2.76,16.11c-.73,3.68.19,4.67,2.76,4.67a11.77,11.77,0,0,0,4.86-1.25l.72,6.25a18.07,18.07,0,0,1-8.94,2c-10.32,0-9.66-6.18-8.81-11.17l3-16.64H716.89Z"/><path class="cls-2" d="M778,255c0,10-8.67,13-20.57,12.68-.2,3.55.85,6.77,5.91,6.77a16.52,16.52,0,0,0,8.88-2.63l1.64,6.25a26,26,0,0,1-12.75,3.35c-8.94,0-12.89-5.45-12.89-12.88,0-10.65,5.33-22.16,19.79-22.16C774.29,246.35,778,248.92,778,255Zm-11.11-2c-4.53,0-7.62,4.14-8.67,8.55,7.1,0,11.7-1.25,11.7-5.79C769.89,253.72,768.64,253,766.86,253Z"/><path class="cls-2" d="M794,260l-3.68,20.58h-9l4.53-25.77c.27-1.25-.13-1.84-1.25-1.91l-2.17-.13,1-5.52h12l-.78,5.06h.13A11.52,11.52,0,0,1,805,246.35a14.49,14.49,0,0,1,5.85,1.12l-2,11.83-7.56.53.72-4.14c.27-1.25.27-1.51-.46-1.71a3.13,3.13,0,0,0-1.44-.13C797,253.85,794.68,256.48,794,260Z"/><path class="cls-3" d="M207.68,131.36a111.47,111.47,0,0,0-12.21-21.19,102,102,0,0,0-26.4-25.62,113.16,113.16,0,0,0-12.78-7,82.87,82.87,0,0,0-17.18-5.7c-8.46-1.91-17-2.29-25.64-2.46-13.22-.26-26.46-.16-39.61-2.06a100.91,100.91,0,0,1-23.64-6.16c-8.85-3.59-16.35-9.41-23.31-16.09A186.15,186.15,0,0,1,.77,13c-.23-.36-.48-.72-.72-1.08a.64.64,0,0,0,0,.54C7.6,27.43,16.24,41.58,27,54.15c5.73,6.7,12,12.77,19.49,17.15C60.92,79.71,76.5,83.67,92.76,85c8.25.67,16.53.71,24.81.92,11.58.28,23.11,1,34.43,3.88a71.38,71.38,0,0,1,11.8,4c.68.29,1.35.63,2,1,.12.07.24.17.36.23,17,8.21,30.57,20.77,41.29,37,.14.2.23.47.51.55C208.12,132.05,207.83,131.72,207.68,131.36Z"/><path class="cls-3" d="M121.16,110.37a86.87,86.87,0,0,0-5.11-10.1,2.64,2.64,0,0,0-2.56-1.48c-2.82.09-5.64,0-8.46,0-11.89,0-23.76-.32-35.5-2.58a70.67,70.67,0,0,1-17.19-5.13c-7.44-3.56-13.85-8.83-19.81-14.77-11-11-20.11-23.6-28.35-37.07-.27-.45-.47-1-1-1.21,8.31,17.65,18,34.21,30.6,48.61A85.32,85.32,0,0,0,53.58,104c9,5.47,18.85,8.14,29,9.68,13.21,2,26.51,1.65,39.79,1.67.77,0,.79-.33.52-1C122.28,113,121.75,111.69,121.16,110.37Z"/><path class="cls-3" d="M104.65,136.65c-.8-1.6-1.64-3.15-2.56-4.66a2.69,2.69,0,0,0-2.57-1.48c-3.75.09-7.5,0-11.25-.25a102.8,102.8,0,0,1-22.93-3.62A52,52,0,0,1,39.29,110C35,104.89,30.81,99.6,26.94,94c-5.46-7.83-10.48-16-15.31-24.33l-1-1.81-.2.12.9,2h0c.91,2.12,1.79,4.25,2.75,6.34,6.57,14.35,14.06,28,23.32,40.54C46.52,129.1,57.75,137.64,71.6,142c12.05,3.82,24.38,5,36.85,5,.9,0,.64-.47.44-1Q107,141.27,104.65,136.65Z"/><path class="cls-1" d="M697.24,3.78v2.5H692.4V18.89h-3V6.28h-4.78V3.78Zm16.33,15.11L713,10c-.06-1.17-.06-2.61-.11-4.22h-.17c-.39,1.33-.89,3.11-1.27,4.5l-2.73,8.39h-3.11l-2.73-8.61c-.27-1.11-.72-2.95-1-4.28h-.17c0,1.39,0,2.83-.11,4.22L701,18.89h-2.89l1.11-15.11h4.5l2.61,7.39c.39,1.17.61,2.28,1,3.83h.06c.39-1.33.72-2.66,1.05-3.72l2.62-7.5h4.33l1.16,15.11Z"/></g></g></svg>