<svg xmlns="http://www.w3.org/2000/svg" width="602.066" height="228.173" viewBox="0 0 602.066 228.173">
  <g id="BC_logo_wtag" transform="translate(-262.506 -197.737)">
    <g id="Group_1" data-name="Group 1">
      <path id="Path_1" data-name="Path 1" d="M588.817,425.75V409.522h2.672V425.75Z" fill="#41555a"/>
      <path id="Path_2" data-name="Path 2" d="M599.045,414.322V425.75h-2.669V409.522h2.1l9.68,11.7V409.545h2.694v16.2h-2.216Z" fill="#41555a"/>
      <path id="Path_3" data-name="Path 3" d="M625.75,413.338a3.627,3.627,0,0,0-.69-.536,6.99,6.99,0,0,0-1.062-.538,8.033,8.033,0,0,0-1.334-.411,6.975,6.975,0,0,0-1.49-.16,4.211,4.211,0,0,0-2.494.594,1.941,1.941,0,0,0-.8,1.646,1.735,1.735,0,0,0,.25.971,2.127,2.127,0,0,0,.775.664,6.238,6.238,0,0,0,1.312.5q.788.217,1.835.468a21.579,21.579,0,0,1,2.327.664,6.727,6.727,0,0,1,1.75.891,3.663,3.663,0,0,1,1.11,1.291,4.046,4.046,0,0,1,.393,1.863,4.359,4.359,0,0,1-.489,2.126,4.054,4.054,0,0,1-1.335,1.452,6.014,6.014,0,0,1-1.967.822,10.538,10.538,0,0,1-2.409.263,12.454,12.454,0,0,1-3.729-.56,10.851,10.851,0,0,1-3.256-1.634l1.217-2.2a5.534,5.534,0,0,0,.893.664,8.6,8.6,0,0,0,1.359.673,12.194,12.194,0,0,0,1.681.526,8.038,8.038,0,0,0,1.884.217,4.655,4.655,0,0,0,2.432-.526,1.707,1.707,0,0,0,.857-1.554,1.608,1.608,0,0,0-.321-1.028,2.738,2.738,0,0,0-.917-.72,8.185,8.185,0,0,0-1.454-.56q-.861-.251-1.956-.526a20.984,20.984,0,0,1-2.206-.674,5.554,5.554,0,0,1-1.562-.858,3.389,3.389,0,0,1-.942-1.177,3.774,3.774,0,0,1-.322-1.633,4.48,4.48,0,0,1,1.776-3.669,5.771,5.771,0,0,1,1.944-.948,8.8,8.8,0,0,1,2.432-.321,9.249,9.249,0,0,1,3.171.526,10.7,10.7,0,0,1,2.552,1.3Z" fill="#41555a"/>
      <path id="Path_4" data-name="Path 4" d="M638.434,423.555a4.436,4.436,0,0,0,2.218-.5,4.114,4.114,0,0,0,1.419-1.315,5.417,5.417,0,0,0,.762-1.85,9.967,9.967,0,0,0,.226-2.138v-8.228h2.7v8.228a11.86,11.86,0,0,1-.405,3.143,7.118,7.118,0,0,1-1.289,2.582,6.093,6.093,0,0,1-2.275,1.749,8.007,8.007,0,0,1-3.351.641,7.825,7.825,0,0,1-3.421-.675,6.112,6.112,0,0,1-2.254-1.806,7.273,7.273,0,0,1-1.241-2.594,12.013,12.013,0,0,1-.381-3.04v-8.228h2.672v8.228a10.056,10.056,0,0,0,.226,2.16,5.419,5.419,0,0,0,.762,1.852,3.978,3.978,0,0,0,1.431,1.3A4.528,4.528,0,0,0,638.434,423.555Z" fill="#41555a"/>
      <path id="Path_5" data-name="Path 5" d="M650.379,425.75V409.522h7.368a4.873,4.873,0,0,1,2.111.457,5.415,5.415,0,0,1,1.657,1.2,5.7,5.7,0,0,1,1.084,1.692,5.01,5.01,0,0,1,.394,1.931,5.205,5.205,0,0,1-.24,1.578,5.442,5.442,0,0,1-.666,1.394,4.527,4.527,0,0,1-1.05,1.108,4.359,4.359,0,0,1-1.359.7l3.981,6.172h-3.027l-3.672-5.645h-3.91v5.645Zm2.671-7.909h4.674a2.243,2.243,0,0,0,1.037-.239,2.432,2.432,0,0,0,.8-.664,3.3,3.3,0,0,0,.525-.971,3.525,3.525,0,0,0,.191-1.166,3.046,3.046,0,0,0-.227-1.165,3.3,3.3,0,0,0-.6-.96,2.789,2.789,0,0,0-.857-.651,2.266,2.266,0,0,0-1.014-.241h-4.53Z" fill="#41555a"/>
      <path id="Path_6" data-name="Path 6" d="M671.936,409.522h2.335l6.676,16.228h-2.813l-1.789-4.412h-6.532l-1.764,4.412h-2.838Zm3.886,9.919-2.72-6.971-2.813,6.971Z" fill="#41555a"/>
      <path id="Path_7" data-name="Path 7" d="M686.789,414.322V425.75h-2.671V409.522h2.1l9.68,11.7V409.545h2.694v16.2h-2.218Z" fill="#41555a"/>
      <path id="Path_8" data-name="Path 8" d="M702.4,417.522a8.163,8.163,0,0,1,.549-2.914A8.008,8.008,0,0,1,704.561,412a8.025,8.025,0,0,1,6.046-2.571,7.588,7.588,0,0,1,3.958.983,6.51,6.51,0,0,1,2.479,2.56l-2.1,1.349a4.618,4.618,0,0,0-.859-1.235,4.15,4.15,0,0,0-1.1-.8,4.861,4.861,0,0,0-1.24-.423,6.525,6.525,0,0,0-1.238-.126,5.038,5.038,0,0,0-2.337.515,5.123,5.123,0,0,0-1.681,1.36,6.015,6.015,0,0,0-1.027,1.9,6.712,6.712,0,0,0-.345,2.1,6.333,6.333,0,0,0,.407,2.262,6.007,6.007,0,0,0,1.132,1.9,5.529,5.529,0,0,0,1.728,1.314,4.91,4.91,0,0,0,2.2.492,5.756,5.756,0,0,0,1.274-.149,4.869,4.869,0,0,0,1.264-.48,5.042,5.042,0,0,0,1.121-.834,4.152,4.152,0,0,0,.845-1.212l2.218,1.212a4.976,4.976,0,0,1-1.145,1.611,7.251,7.251,0,0,1-1.668,1.177,8.771,8.771,0,0,1-1.966.731,8.628,8.628,0,0,1-2.041.252,7.259,7.259,0,0,1-3.266-.732,8.549,8.549,0,0,1-2.551-1.908A8.688,8.688,0,0,1,703,420.572,8.163,8.163,0,0,1,702.4,417.522Z" fill="#41555a"/>
      <path id="Path_9" data-name="Path 9" d="M732.471,423.487v2.263H720.86V409.522h11.4v2.262H723.53V416.4h7.559v2.125H723.53v4.96Z" fill="#41555a"/>
      <path id="Path_10" data-name="Path 10" d="M753.287,413.338a3.616,3.616,0,0,0-.692-.536,7.069,7.069,0,0,0-1.061-.538,8.1,8.1,0,0,0-1.335-.411,6.964,6.964,0,0,0-1.491-.16,4.2,4.2,0,0,0-2.491.594,1.936,1.936,0,0,0-.8,1.646,1.72,1.72,0,0,0,.25.971,2.119,2.119,0,0,0,.775.664,6.2,6.2,0,0,0,1.312.5q.785.217,1.835.468a21.714,21.714,0,0,1,2.324.664,6.7,6.7,0,0,1,1.753.891,3.68,3.68,0,0,1,1.109,1.291,4.032,4.032,0,0,1,.394,1.863,4.359,4.359,0,0,1-.489,2.126,4.074,4.074,0,0,1-1.336,1.452,6.027,6.027,0,0,1-1.966.822,10.557,10.557,0,0,1-2.409.263,12.474,12.474,0,0,1-3.732-.56,10.845,10.845,0,0,1-3.253-1.634l1.215-2.2a5.585,5.585,0,0,0,.893.664,8.456,8.456,0,0,0,1.361.673,11.944,11.944,0,0,0,1.681.526,8.022,8.022,0,0,0,1.882.217,4.66,4.66,0,0,0,2.432-.526,1.707,1.707,0,0,0,.859-1.554,1.621,1.621,0,0,0-.322-1.028,2.743,2.743,0,0,0-.918-.72,8.166,8.166,0,0,0-1.455-.56q-.856-.251-1.955-.526a20.719,20.719,0,0,1-2.2-.674,5.541,5.541,0,0,1-1.562-.858,3.344,3.344,0,0,1-.942-1.177,3.745,3.745,0,0,1-.322-1.633,4.457,4.457,0,0,1,1.776-3.669,5.765,5.765,0,0,1,1.943-.948,8.808,8.808,0,0,1,2.432-.321,9.241,9.241,0,0,1,3.171.526,10.64,10.64,0,0,1,2.551,1.3Z" fill="#41555a"/>
      <path id="Path_11" data-name="Path 11" d="M770.524,423.487v2.263H758.911V409.522h11.4v2.262h-8.727V416.4h7.559v2.125h-7.559v4.96Z" fill="#41555a"/>
      <path id="Path_12" data-name="Path 12" d="M774.361,425.75V409.522h7.369a4.865,4.865,0,0,1,2.11.457,5.419,5.419,0,0,1,1.658,1.2,5.681,5.681,0,0,1,1.083,1.692,4.992,4.992,0,0,1,.394,1.931,5.2,5.2,0,0,1-.239,1.578,5.445,5.445,0,0,1-.667,1.394,4.527,4.527,0,0,1-1.05,1.108,4.338,4.338,0,0,1-1.359.7l3.982,6.172h-3.027l-3.673-5.645h-3.909v5.645Zm2.672-7.909h4.674a2.243,2.243,0,0,0,1.037-.239,2.432,2.432,0,0,0,.8-.664,3.3,3.3,0,0,0,.525-.971,3.526,3.526,0,0,0,.19-1.166,3.045,3.045,0,0,0-.226-1.165,3.32,3.32,0,0,0-.6-.96,2.8,2.8,0,0,0-.857-.651,2.266,2.266,0,0,0-1.014-.241h-4.53Z" fill="#41555a"/>
      <path id="Path_13" data-name="Path 13" d="M791.863,409.522l5.1,13.006,5.078-13.006h2.837l-6.772,16.228h-2.288l-6.795-16.228Z" fill="#41555a"/>
      <path id="Path_14" data-name="Path 14" d="M808.028,425.75V409.522H810.7V425.75Z" fill="#41555a"/>
      <path id="Path_15" data-name="Path 15" d="M814.512,417.522a8.186,8.186,0,0,1,.55-2.914A7.993,7.993,0,0,1,816.671,412a8.016,8.016,0,0,1,6.044-2.571,7.581,7.581,0,0,1,3.958.983,6.522,6.522,0,0,1,2.481,2.56l-2.1,1.349a4.57,4.57,0,0,0-.857-1.235,4.218,4.218,0,0,0-1.1-.8,4.873,4.873,0,0,0-1.24-.423,6.547,6.547,0,0,0-1.241-.126,5.056,5.056,0,0,0-2.337.515,5.151,5.151,0,0,0-1.68,1.36,6.009,6.009,0,0,0-1.025,1.9,6.682,6.682,0,0,0-.345,2.1,6.331,6.331,0,0,0,.4,2.262,6.085,6.085,0,0,0,1.133,1.9,5.511,5.511,0,0,0,1.729,1.314,4.9,4.9,0,0,0,2.193.492,5.8,5.8,0,0,0,1.277-.149,4.9,4.9,0,0,0,1.263-.48,5.085,5.085,0,0,0,1.12-.834,4.157,4.157,0,0,0,.847-1.212l2.216,1.212a4.968,4.968,0,0,1-1.143,1.611,7.263,7.263,0,0,1-1.67,1.177,8.725,8.725,0,0,1-1.967.731,8.617,8.617,0,0,1-2.038.252,7.252,7.252,0,0,1-3.266-.732,8.474,8.474,0,0,1-2.551-1.908,8.733,8.733,0,0,1-1.67-2.675A8.161,8.161,0,0,1,814.512,417.522Z" fill="#41555a"/>
      <path id="Path_16" data-name="Path 16" d="M844.578,423.487v2.263h-11.61V409.522h11.4v2.262h-8.728V416.4H843.2v2.125h-7.559v4.96Z" fill="#41555a"/>
      <path id="Path_17" data-name="Path 17" d="M858.075,413.338a3.65,3.65,0,0,0-.692-.536,7.072,7.072,0,0,0-1.061-.538,8.1,8.1,0,0,0-1.335-.411,6.971,6.971,0,0,0-1.491-.16,4.2,4.2,0,0,0-2.491.594,1.936,1.936,0,0,0-.8,1.646,1.72,1.72,0,0,0,.25.971,2.124,2.124,0,0,0,.774.664,6.226,6.226,0,0,0,1.313.5q.785.217,1.835.468a21.719,21.719,0,0,1,2.324.664,6.718,6.718,0,0,1,1.753.891,3.68,3.68,0,0,1,1.109,1.291,4.032,4.032,0,0,1,.394,1.863,4.359,4.359,0,0,1-.489,2.126,4.073,4.073,0,0,1-1.336,1.452,6.028,6.028,0,0,1-1.966.822,10.557,10.557,0,0,1-2.409.263,12.474,12.474,0,0,1-3.732-.56,10.845,10.845,0,0,1-3.253-1.634l1.215-2.2a5.582,5.582,0,0,0,.893.664,8.458,8.458,0,0,0,1.361.673,11.945,11.945,0,0,0,1.681.526,8.012,8.012,0,0,0,1.881.217,4.661,4.661,0,0,0,2.433-.526,1.707,1.707,0,0,0,.859-1.554,1.62,1.62,0,0,0-.322-1.028,2.743,2.743,0,0,0-.918-.72,8.167,8.167,0,0,0-1.455-.56q-.856-.251-1.956-.526a20.705,20.705,0,0,1-2.2-.674,5.54,5.54,0,0,1-1.562-.858,3.343,3.343,0,0,1-.942-1.177,3.745,3.745,0,0,1-.322-1.633,4.458,4.458,0,0,1,1.776-3.669,5.766,5.766,0,0,1,1.943-.948,8.8,8.8,0,0,1,2.432-.321,9.242,9.242,0,0,1,3.171.526,10.639,10.639,0,0,1,2.551,1.3Z" fill="#41555a"/>
    </g>
    <path id="Path_18" data-name="Path 18" d="M299.427,377.029H262.506V371.95h9.745c1.234,0,1.647-.823,1.647-2.745V293.578c0-1.921-.413-2.607-1.647-2.607h-9.745v-5.079H297.23c21.549,0,31.432,7.412,31.432,23.334,0,10.842-4.8,17.568-16.608,20.45,14.687,2.47,21.412,10.02,21.412,23.333C333.466,368.793,322.486,377.029,299.427,377.029Zm-5.215-49c19.077,0,27.312-5.353,27.312-18.392s-7.412-18.666-24.294-18.666H280.9v37.058ZM280.9,371.95h18.255c18.941,0,27.177-6.039,27.177-19.078,0-13.725-8.509-20.039-26.764-20.039H280.9Z" fill="#2d4053"/>
    <path id="Path_19" data-name="Path 19" d="M341.534,344.774c0,16.059,9.609,28.549,25.8,28.549,13.726,0,21.411-7.275,24.156-18.666l5.217,1.509c-2.745,12.9-12.629,22.373-29.511,22.373-20.177,0-32.8-14.824-32.8-34.589,0-20.176,13.175-34.588,32.665-34.588,18.118,0,29.921,12.9,29.921,32.118v3.294Zm0-4.8h48.452c-.137-15.647-8.784-25.666-23.058-25.666C352.1,314.3,342.77,324.872,341.534,339.97Z" fill="#2d4053"/>
    <path id="Path_20" data-name="Path 20" d="M407.84,361.794v-45.98H397v-4.392s8.784-.55,8.1-.55c2.608-.137,3.431-.824,3.569-3.568l.961-11.941h5.353v15.372h25.948v5.079H414.7v45.98c0,7.96,3.021,11.254,10.157,11.254a25.106,25.106,0,0,0,7.824-1.372v5.078a27.7,27.7,0,0,1-8.92,1.51C412.643,378.264,407.84,373.46,407.84,361.794Z" fill="#2d4053"/>
    <path id="Path_21" data-name="Path 21" d="M445,361.794v-45.98H434.157v-4.392s8.784-.55,8.1-.55c2.608-.137,3.432-.824,3.57-3.568l.96-11.941h5.353v15.372H468.47v5.079H451.862v45.98c0,7.96,3.02,11.254,10.158,11.254a25.109,25.109,0,0,0,7.822-1.372v5.078a27.692,27.692,0,0,1-8.921,1.51C449.8,378.264,445,373.46,445,361.794Z" fill="#2d4053"/>
    <path id="Path_22" data-name="Path 22" d="M474.066,344.774c0,16.059,9.609,28.549,25.8,28.549,13.724,0,21.409-7.275,24.156-18.666l5.215,1.509c-2.745,12.9-12.627,22.373-29.509,22.373-20.176,0-32.8-14.824-32.8-34.589,0-20.176,13.176-34.588,32.666-34.588,18.118,0,29.922,12.9,29.922,32.118v3.294Zm0-4.8h48.45c-.136-15.647-8.784-25.666-23.058-25.666C484.634,314.3,475.3,324.872,474.066,339.97Z" fill="#2d4053"/>
    <path id="Path_23" data-name="Path 23" d="M546.444,325.7c3.569-11.942,10.843-16.334,18.668-16.334,8.921,0,13.451,5.628,13.451,11.942,0,4.941-2.472,7.96-6.314,7.96a4.781,4.781,0,0,1-4.942-4.666,4.869,4.869,0,0,1,4.667-4.942c-.411-2.2-2.745-5.078-7.685-5.078-11.942,0-17.432,12.9-17.432,30.607v24.158c0,2.333.549,2.607,1.646,2.607H558.8v5.079H528.6V371.95h9.607c.961,0,1.648-.274,1.648-2.607v-50.51c0-2.333-.412-3.019-1.648-3.019h-9.745v-5.079H531.9a111.607,111.607,0,0,0,14.547-.961Z" fill="#2d4053"/>
    <path id="Path_24" data-name="Path 24" d="M582.594,338.43c0-29.1,17.569-47.353,42.136-47.353,14,0,24.021,6.726,28.138,17.706l2.471-16.058h8.1v33.352H652.594c-3.431-18.117-12.627-25.941-26.491-25.941-18.255,0-29.646,13.039-29.646,36.51v3.294c0,23.607,11.529,36.509,29.784,36.509,15.235,0,26.764-7.549,28.823-25.118l9.334,1.236c-1.786,18.8-15.1,32.941-38.432,32.941C600.026,385.508,582.594,368.077,582.594,338.43Z" fill="#2d4053"/>
    <path id="Path_25" data-name="Path 25" d="M684.426,327.312a7.934,7.934,0,0,1,3.568,7c0,4.8-3.568,7.961-8.235,7.961-5.353,0-8.784-3.432-8.784-9.2,0-11.667,13.451-17.432,29.236-17.432,19.079,0,27.45,6.726,27.45,22.922v34.176c0,2.2.55,3.157,1.922,3.157h7.549v7.961H717.641c-1.372-3.706-2.058-7.412-2.745-13.039-3.7,8.647-13.724,14.686-25.117,14.686-12.49,0-20.45-7.549-20.45-17.568,0-15.785,15.51-21.961,45.294-25.53V338.7c0-10.568-5.08-14.961-16.334-14.961C691.838,323.743,687.308,324.979,684.426,327.312Zm30.2,27.314v-5.491c-21.686,2.471-32.667,6.314-32.667,16.746,0,6.588,4.942,10.98,12.354,10.98C706.525,376.861,714.623,367.8,714.623,354.626Z" fill="#2d4053"/>
    <path id="Path_26" data-name="Path 26" d="M759.632,331.567c3.431-11.392,10.57-15.922,18.393-15.922,9.47,0,14.822,6.04,14.822,14.412,0,7-3.979,11.53-9.881,11.53a7.3,7.3,0,0,1-7.275-7.138,7.436,7.436,0,0,1,5.765-7.137c-.686-1.372-2.608-3.02-6.039-3.02-10.432,0-15.51,10.432-15.51,26.079v22.372c0,2.745.686,3.157,1.922,3.157H770.2v7.961H737.123V375.9h7.685c1.373,0,2.059-.412,2.059-3.157V328.959c0-2.882-.548-3.706-2.059-3.706h-7.96v-7.96h7.412c6.314,0,12.322-.947,15.372-2.236Z" fill="#2d4053"/>
    <path id="Path_27" data-name="Path 27" d="M805.746,352.841c.274,14.138,7.96,24.294,22.373,24.294,11.529,0,17.978-5.9,21-15.51l7.96,3.3c-3.293,11.666-12.763,20.588-29.922,20.588-22.234,0-34.724-14.686-34.724-35,0-20.451,13.725-34.863,33.765-34.863,19.764,0,31.431,13.039,31.431,33.9v3.294Zm0-7.274h38.842c-.273-14.549-6.589-21.824-18.391-21.824C813.981,323.743,806.706,331.567,805.746,345.567Z" fill="#2d4053"/>
    <g id="Group_2" data-name="Group 2">
      <path id="Path_28" data-name="Path 28" d="M840.669,294.128h-4.715v-1.7h11.477v1.7h-4.738v13.8h-2.024Z" fill="#2d4053"/>
      <path id="Path_29" data-name="Path 29" d="M862.226,301.121c-.115-2.162-.253-4.761-.23-6.693h-.069c-.529,1.816-1.173,3.749-1.955,5.888l-2.737,7.521h-1.518l-2.507-7.384c-.736-2.184-1.357-4.185-1.794-6.025h-.046c-.046,1.932-.161,4.531-.3,6.853l-.414,6.648h-1.909l1.081-15.5h2.553l2.645,7.5c.644,1.91,1.173,3.612,1.564,5.222h.069c.391-1.564.943-3.266,1.633-5.222l2.76-7.5h2.553l.966,15.5h-1.955Z" fill="#2d4053"/>
    </g>
    <g id="Group_3" data-name="Group 3">
      <path id="Path_30" data-name="Path 30" d="M803.068,263.832a10.524,10.524,0,0,0-14.624-3.771,11.068,11.068,0,0,0-3.8,14.945,10.607,10.607,0,0,0,2.543,2.972,10.378,10.378,0,0,0,1.158.81c.677.409-41.846,36.124-96.5,17.188,0,0,53.976,27.629,108.482-17.9a.75.75,0,0,0,.112-.129A11.075,11.075,0,0,0,803.068,263.832Z" fill="#7c177e"/>
      <path id="Path_31" data-name="Path 31" d="M794.9,197.737s4.074,76.4-56.848,89.375c41.58-14.617,40.343-65.733,40.343-65.733s-53,8.6-56.369,54.924C716.98,207.446,794.9,197.737,794.9,197.737Z" fill="#d80064"/>
      <path id="Path_32" data-name="Path 32" d="M660.391,248.907s17.839,47.337,57.677,41.239c-28.425.661-43.418-30.591-43.418-30.591s34.917-7.013,46.855,20.347C707.1,235.639,660.391,248.907,660.391,248.907Z" fill="#404596"/>
    </g>
  </g>
</svg>
