<svg width="646" height="240" viewBox="0 0 646 240" fill="none" xmlns="http://www.w3.org/2000/svg">
<g clip-path="url(#clip0_963_53)">
<rect x="70" y="168" width="500" height="113" fill="url(#paint0_radial_963_53)" fill-opacity="0.7"/>
<rect x="-3" y="168" width="652" height="3" fill="url(#paint1_radial_963_53)"/>
<g clip-path="url(#clip1_963_53)">
<g filter="url(#filter0_f_963_53)">
<ellipse cx="323.5" cy="203" rx="156.5" ry="8" fill="black" fill-opacity="0.2"/>
</g>
<rect x="216" y="46" width="214" height="155" fill="white"/>
<g opacity="0.2">
<line x1="233.186" y1="83" x2="319.186" y2="83" stroke="black" stroke-width="4"/>
<line x1="233.186" y1="99" x2="319.186" y2="99" stroke="black" stroke-width="4"/>
<line x1="233" y1="115" x2="292" y2="115" stroke="black" stroke-width="4"/>
<rect x="233" y="133" width="45" height="11" fill="black"/>
<rect x="333.5" y="80.5" width="71" height="61" fill="#D9D9D9" stroke="black" stroke-width="3"/>
<path d="M334 130L350.5 113.5L365.5 127.5L386.5 106.5L404.5 124.5" stroke="black" stroke-width="3"/>
<circle cx="365" cy="101" r="5.5" stroke="black" stroke-width="3"/>
</g>
<path fill-rule="evenodd" clip-rule="evenodd" d="M185.932 193.136H215.338C213.166 192.574 211.531 190.562 211.531 188.222V45.078C211.531 42.2933 213.82 40 216.599 40H429.07C431.849 40 434.138 42.2933 434.138 45.078V188.198C434.138 190.562 432.526 192.551 430.331 193.112H461.068C464.337 193.112 467 195.78 467 199.056C467 202.332 464.337 205 461.068 205H185.932C182.663 205 180 202.332 180 199.056C180 195.803 182.663 193.136 185.932 193.136ZM220.196 47.9563H426.174V186.771H220.196V47.9563ZM315.162 195.359H331.838C333.403 195.359 334.688 196.646 334.688 198.214C334.688 199.782 333.403 201.069 331.838 201.069H315.162C313.597 201.069 312.312 199.782 312.312 198.214C312.312 196.622 313.597 195.359 315.162 195.359Z" fill="#813C87"/>
<path d="M332.149 123.268L291.145 115.008L291.968 110.922C293.371 103.955 295.286 98.4397 297.747 94.411C300.215 90.3429 303.367 86.8758 307.222 83.9048C311.08 80.9208 319.39 75.9988 332.164 69.1416C338.949 65.5616 342.732 61.7993 343.527 57.8573C344.329 53.876 343.765 50.5872 341.892 47.907C339.973 45.2581 336.659 43.4457 331.905 42.4881C326.784 41.4566 322.24 42.2992 318.204 45.0158C314.176 47.6931 310.846 53.1957 308.225 61.4031L267.391 47.7673C271.934 32.6562 280.019 21.4067 291.643 13.9637C303.292 6.539 319.202 4.87896 339.345 8.93634C355.034 12.0968 367.012 17.9166 375.351 26.3828C386.645 37.8976 390.832 51.0059 387.862 65.7524C386.63 71.8683 383.745 77.4606 379.211 82.4481C374.716 87.4434 366.385 93.0151 354.314 99.0873C345.892 103.414 340.356 107.083 337.737 110.207C335.168 113.287 333.278 117.663 332.149 123.268ZM287.52 125.63L331.471 134.483L323.662 173.248L279.711 164.395L287.52 125.63Z" fill="#D43375" fill-opacity="0.7"/>
</g>
</g>
<defs>
<filter id="filter0_f_963_53" x="163" y="191" width="321" height="24" filterUnits="userSpaceOnUse" color-interpolation-filters="sRGB">
<feFlood flood-opacity="0" result="BackgroundImageFix"/>
<feBlend mode="normal" in="SourceGraphic" in2="BackgroundImageFix" result="shape"/>
<feGaussianBlur stdDeviation="2" result="effect1_foregroundBlur_963_53"/>
</filter>
<radialGradient id="paint0_radial_963_53" cx="0" cy="0" r="1" gradientUnits="userSpaceOnUse" gradientTransform="translate(320 186.681) rotate(90) scale(64.246 284.274)">
<stop offset="0.390625" stop-color="#D9D9D9"/>
<stop offset="0.802083" stop-color="#D9D9D9" stop-opacity="0"/>
</radialGradient>
<radialGradient id="paint1_radial_963_53" cx="0" cy="0" r="1" gradientUnits="userSpaceOnUse" gradientTransform="translate(323 169.5) rotate(90) scale(1.5 326)">
<stop stop-opacity="0.71"/>
<stop offset="1" stop-color="#D9D9D9" stop-opacity="0"/>
</radialGradient>
<clipPath id="clip0_963_53">
<rect width="646" height="240" fill="white"/>
</clipPath>
<clipPath id="clip1_963_53">
<rect width="313" height="230" fill="white" transform="translate(167 -12)"/>
</clipPath>
</defs>
</svg>
