<!-- Generator: Adobe Illustrator 19.2.1, SVG Export Plug-In . SVG Version: 6.00 Build 0)  -->
<svg version="1.1" id="Layer_1" xmlns="http://www.w3.org/2000/svg" xmlns:xlink="http://www.w3.org/1999/xlink" x="0px" y="0px"
	 viewBox="0 0 139 47" style="enable-background:new 0 0 139 47;" xml:space="preserve">
<style type="text/css">
	.st0{fill-rule:evenodd;clip-rule:evenodd;}
	.st1{fill-rule:evenodd;clip-rule:evenodd;fill:#FFFFFF;}
	.st2{fill:#FFFFFF;}
</style>
<path class="st1" d="M72.3,38.2l0-1.7c2.1-0.1,3.1-0.6,3.1-2.2V23c0-2-0.3-2.5-3.1-2.5l0-1.7c2.4-0.2,4.7-0.7,6-1.5v5.9h0.1
	c0.9-3.4,3.5-5.9,7.6-5.9L85.4,21c-2.4-0.1-3.8,0.3-4.7,1.1c-1.4,1.4-1.9,3.8-1.9,9.3c0,4.2,0.2,5.1,3.7,5v1.7H72.3z M123.5,20.1
	l0-1.7c2.5-0.3,4.3-1.9,4.6-6l2,0v5.5h3.6c1.2,0,2-0.2,2.7-0.4l-0.8,2.7H130v12.9c0,2.3,1.4,2.8,5,2.8c0.7,0,0.5,0,1.2-0.1l-0.4,2.4
	c-1.1,0.3-2,0.4-3.5,0.4c-2.8,0-5.7-1.5-5.7-4.3v-14H123.5z M108.1,30.9l2,0v1.1c0,3.6,1.6,4.5,4.9,4.5c2.7,0,4-1.2,4-2.9
	c0-5.5-11-3.9-11-10.9c0-2.7,2-5,6.7-5.2c2.2-0.1,4.9,0.5,6.6,0.2v5.6l-2,0.6c0-3.9-1.9-4.2-4-4.2c-2.4-0.1-4.2,0.4-4.2,2.3
	c0,4.4,11,3.4,11,10.5c0,2.9-1.8,6-6.8,6c-3,0-5.4-0.5-7.2-0.4V30.9z M96.7,35.9c4.2,0,5.5-2,5.5-8.4c0-5.9-1.7-7.5-6.9-7.5
	c-4,0-6,0.7-6,8.5C89.2,33.4,91.2,35.9,96.7,35.9z M53.2,9.8h20.3l0,6.6L71.5,17c-0.3-4.6-1.3-5.2-6.3-5.3c-3.1-0.1-4.7,0.6-4.7,3.8
	v7.3h3.8c2.6,0,3-1.7,3-3.8l2,0v9.5l-2,0c0-3-0.7-3.5-2.9-3.5h-3.9v5.1c0,5.2,0.8,6.4,4.2,6.3l0,1.7H53.2l0-1.7
	c2.1,0,3.7-1.1,3.7-3.6V15.9c0-3.1-0.6-4.4-3.7-4.4L53.2,9.8z M96.3,17.3c6.8,0,9.1,4.3,9.1,9.7c0,6.9-3.5,11.7-10.6,11.7
	c-6.1,0-9.1-3.8-9.1-10C85.8,21.2,89.7,17.3,96.3,17.3z"/>
<g>
	<path class="st1" d="M19,1.4c0.7-0.3,1.6-0.4,2.5-0.3c0.2,0,0.4,0.1,0.6,0.1c2.3,0.5,3.8,2.7,3.3,5.1l-1.8,9.1L19,1.4z"/>
	<path class="st1" d="M10.4,5.2c0.5-0.6,1.2-1,2.1-1.3c0.2-0.1,0.4-0.1,0.6-0.1c2.3-0.5,4.6,0.9,5.1,3.3l2,9L10.4,5.2z"/>
	<path class="st1" d="M4,12.2c0.2-0.7,0.7-1.4,1.4-2C5.6,10,5.7,9.9,5.9,9.8c1.9-1.4,4.6-1,6,0.9l5.6,7.4L4,12.2z"/>
	<path class="st1" d="M1,21.1c-0.1-0.8,0.1-1.6,0.5-2.4c0.1-0.2,0.2-0.3,0.3-0.5c1.2-2.1,3.8-2.8,5.8-1.6l8.1,4.5L1,21.1z"/>
	<path class="st1" d="M1.9,30.5c-0.4-0.7-0.6-1.5-0.6-2.4c0-0.2,0-0.4,0-0.6c0.2-2.4,2.3-4.1,4.7-3.9l9.2,0.9L1.9,30.5z"/>
	<path class="st1" d="M6.6,38.8c-0.6-0.4-1.1-1.1-1.5-2C5,36.6,5,36.4,4.9,36.2c-0.7-2.2,0.5-4.7,2.7-5.4l8.8-3L6.6,38.8z"/>
	<path class="st1" d="M14.2,44.4c-0.7-0.2-1.5-0.6-2.2-1.2c-0.1-0.1-0.3-0.3-0.4-0.4c-1.6-1.7-1.5-4.5,0.3-6.1l6.8-6.3L14.2,44.4z"
		/>
	<path class="st1" d="M23.5,46.4c-0.7,0.2-1.6,0.1-2.5-0.2c-0.2-0.1-0.4-0.1-0.5-0.2c-2.2-0.9-3.2-3.5-2.2-5.6l3.7-8.5L23.5,46.4z"
		/>
	<path class="st1" d="M32.7,44.5c-0.6,0.4-1.4,0.7-2.4,0.8c-0.2,0-0.4,0-0.6,0c-2.4,0-4.3-1.9-4.3-4.3l-0.1-9.3L32.7,44.5z"/>
	<path class="st1" d="M40.4,39c-0.4,0.7-1,1.3-1.8,1.7c-0.2,0.1-0.3,0.2-0.5,0.2c-2.2,1-4.7,0-5.7-2.1l-3.9-8.4L40.4,39z"/>
	<path class="st1" d="M45.2,30.8c-0.1,0.8-0.4,1.6-1,2.3c-0.1,0.2-0.2,0.3-0.4,0.4c-1.6,1.8-4.3,1.9-6.1,0.4l-7-6.1L45.2,30.8z"/>
	<path class="st1" d="M46.3,21.4c0.2,0.7,0.3,1.6,0,2.5c0,0.2-0.1,0.4-0.2,0.5c-0.7,2.3-3.1,3.5-5.4,2.8l-8.9-2.8L46.3,21.4z"/>
	<path class="st1" d="M43.4,12.4c0.5,0.6,0.9,1.3,1.1,2.3c0,0.2,0.1,0.4,0.1,0.6c0.3,2.4-1.4,4.5-3.8,4.7l-9.2,1.1L43.4,12.4z"/>
	<path class="st1" d="M37.1,5.4C37.8,5.7,38.5,6.2,39,7c0.1,0.2,0.2,0.3,0.3,0.5c1.2,2,0.5,4.7-1.5,5.9l-8,4.7L37.1,5.4z"/>
	<path class="st1" d="M28.5,1.5c0.8,0,1.6,0.2,2.4,0.7c0.2,0.1,0.3,0.2,0.5,0.3c1.9,1.4,2.4,4.1,1,6L27,16.1L28.5,1.5z"/>
</g>
</svg>